<svg width="54" height="60" viewBox="0 0 54 60" fill="none" xmlns="http://www.w3.org/2000/svg">
<path d="M26.8326 32.1691V39.2513C26.8326 42.5929 24.1892 45.4856 20.8476 45.5854C17.3564 45.6851 14.4636 42.8423 14.4636 39.4009V15.9599C14.4636 11.9699 11.2218 8.72803 7.23182 8.72803H0V39.1017C0 50.4731 9.07719 59.8994 20.4486 59.9992C31.9198 60.0989 41.2962 50.8222 41.2962 39.3511V28.9771H30.0245C28.2789 28.9771 26.8326 30.3736 26.8326 32.1691Z" fill="white"/>
<path d="M45.785 0H34.4135C30.1742 0 26.7827 3.44135 26.7827 7.63082V7.78045V16.5584V19.1519C26.7827 19.2516 26.8825 19.2516 26.9323 19.2017C27.3313 18.3539 27.7802 16.5584 32.2191 16.5584H35.4609H45.785C50.0243 16.5584 53.4158 13.117 53.4158 8.92756V7.63082C53.4158 3.44135 49.9744 0 45.785 0Z" fill="url(#paint0_linear_1_352)"/>
<defs>
<linearGradient id="paint0_linear_1_352" x1="47.4327" y1="3.7987" x2="35.2767" y2="11.1981" gradientUnits="userSpaceOnUse">
<stop stop-color="#F4E353"/>
<stop offset="1" stop-color="#EDB031"/>
</linearGradient>
</defs>
</svg>
