<svg width="54" height="60" viewBox="0 0 54 60" fill="none" xmlns="http://www.w3.org/2000/svg">
<path d="M26.8326 32.1692V39.2514C26.8326 42.593 24.1892 45.4857 20.8476 45.5854C17.3564 45.6852 14.4636 42.8423 14.4636 39.401V15.9599C14.4636 11.9699 11.2218 8.72807 7.23182 8.72807H0V39.1017C0 50.4731 9.07719 59.8995 20.4486 59.9992C31.9198 60.099 41.2962 50.8223 41.2962 39.3511V28.9772H30.0245C28.2789 28.9772 26.8326 30.3737 26.8326 32.1692Z" fill="url(#paint0_linear_1_171)"/>
<path d="M45.7854 0H34.414C30.1747 0 26.7832 3.44135 26.7832 7.63082V7.78045V16.5584V19.1519C26.7832 19.2516 26.883 19.2516 26.9328 19.2017C27.3318 18.3539 27.7807 16.5584 32.2195 16.5584H35.4614H45.7854C50.0248 16.5584 53.4163 13.117 53.4163 8.92756V7.63082C53.4163 3.44135 49.9749 0 45.7854 0Z" fill="url(#paint1_linear_1_171)"/>
<defs>
<linearGradient id="paint0_linear_1_171" x1="0" y1="34.3892" x2="41.3139" y2="34.3892" gradientUnits="userSpaceOnUse">
<stop stop-color="#0D0D21"/>
<stop offset="1" stop-color="#194463"/>
</linearGradient>
<linearGradient id="paint1_linear_1_171" x1="47.4332" y1="3.7987" x2="35.2772" y2="11.1981" gradientUnits="userSpaceOnUse">
<stop stop-color="#F4E353"/>
<stop offset="1" stop-color="#EDB031"/>
</linearGradient>
</defs>
</svg>
